<svg width="1006" height="129" viewBox="0 0 1006 129" fill="none" xmlns="http://www.w3.org/2000/svg">
<path d="M836.77 96.1865C830.519 96.1865 825.45 94.0901 821.562 89.8972C817.75 85.7044 815.844 80.025 815.844 72.8591V54.4487C815.844 47.2065 817.75 41.489 821.562 37.2962C825.373 33.1033 830.443 31.0069 836.77 31.0069C841.954 31.0069 846.109 32.4172 849.234 35.2379C852.36 38.0585 853.923 41.8321 853.923 46.5585L851.865 44.1572H854.152L853.923 29.8634V11.5674H864.214V95.043H853.923V83.0362H851.865L853.923 80.6349C853.923 85.4376 852.36 89.2492 849.234 92.0699C846.109 94.8143 841.954 96.1865 836.77 96.1865ZM840.201 87.2672C844.47 87.2672 847.824 85.9331 850.264 83.2649C852.703 80.5967 853.923 76.8994 853.923 72.173V55.0204C853.923 50.294 852.703 46.5966 850.264 43.9285C847.824 41.2603 844.47 39.9262 840.201 39.9262C835.856 39.9262 832.425 41.2222 829.909 43.8141C827.394 46.4061 826.136 50.1415 826.136 55.0204V72.173C826.136 77.0519 827.394 80.7873 829.909 83.3793C832.425 85.9712 835.856 87.2672 840.201 87.2672ZM908.995 96.1865C904.04 96.1865 899.694 95.1954 895.959 93.2134C892.3 91.2313 889.441 88.4488 887.383 84.8658C885.401 81.2066 884.41 76.9757 884.41 72.173V55.0204C884.41 50.1415 885.401 45.9105 887.383 42.3276C889.441 38.7446 892.3 35.9621 895.959 33.98C899.694 31.998 904.04 31.0069 908.995 31.0069C913.95 31.0069 918.257 31.998 921.916 33.98C925.652 35.9621 928.511 38.7446 930.493 42.3276C932.551 45.9105 933.58 50.1415 933.58 55.0204V66.1124H894.472V72.173C894.472 77.1281 895.73 80.9398 898.246 83.608C900.762 86.1999 904.345 87.4959 908.995 87.4959C912.959 87.4959 916.161 86.8098 918.6 85.4376C921.04 83.9891 922.526 81.8546 923.06 79.034H933.351C932.665 84.2941 930.073 88.4869 925.576 91.6125C921.154 94.6618 915.627 96.1865 908.995 96.1865ZM923.517 59.2514V55.0204C923.517 50.0653 922.26 46.2536 919.744 43.5854C917.304 40.9173 913.721 39.5832 908.995 39.5832C904.345 39.5832 900.762 40.9173 898.246 43.5854C895.73 46.2536 894.472 50.0653 894.472 55.0204V58.3366H924.318L923.517 59.2514ZM970.585 95.043L949.545 32.1504H960.065L974.015 74.46C974.854 76.9757 975.616 79.4151 976.302 81.7784C976.989 84.0654 977.484 85.8568 977.789 87.1528C978.17 85.8568 978.704 84.0654 979.39 81.7784C980.076 79.4151 980.8 76.9757 981.563 74.46L995.17 32.1504H1005.58L984.536 95.043H970.585Z" fill="white"/>
<rect x="796.086" y="84.3262" width="12.0467" height="12.0467" fill="white"/>
<path fill-rule="evenodd" clip-rule="evenodd" d="M372.945 12.0169C362.316 16.5956 359.895 17.7933 359.895 18.4739C359.895 18.6923 360.766 19.264 361.83 19.7439C364.802 21.0841 365.416 22.878 365.416 30.222C365.416 33.6016 365.181 38.2812 364.893 40.6203C363.569 51.3694 359.266 67.9055 353.406 84.7644C351.73 89.5881 350.358 93.71 350.358 93.9249C350.358 94.6487 352.391 94.3229 354.519 93.2583C355.681 92.677 358.238 90.983 360.202 89.4937C362.165 88.0044 363.942 86.7862 364.15 86.7862C364.359 86.7862 365.865 88.023 367.498 89.5349C369.131 91.0467 371.42 92.8372 372.585 93.5138C375.17 95.0156 380.372 96.011 383.173 95.5401C387.966 94.734 394.313 90.6823 398.584 85.7015C404.96 78.2672 408.848 71.3996 410.614 64.4496C411.175 62.2411 411.884 58.0072 412.191 55.0412C412.605 51.0236 412.6 48.7538 412.168 46.1427C411.335 41.0951 409.741 37.2372 407.471 34.7751C404.56 31.6174 401.714 30.4097 397.086 30.369C393.754 30.3394 392.893 30.5337 390.24 31.913C386.493 33.8611 380.864 39.4246 378.301 43.7122C377.249 45.4726 376.527 46.3239 376.677 45.6267C378.069 39.1456 380.017 30.9041 382.515 20.9214C384.153 14.373 385.494 8.66994 385.494 8.2473C385.494 7.76945 385.067 7.49889 384.365 7.53202C383.743 7.56114 378.605 9.57945 372.945 12.0169ZM570.963 12.0214C562.181 15.4628 558.665 17.0439 558.665 17.5524C558.665 17.7531 559.227 18.9001 559.914 20.1018C560.886 21.8013 561.164 23.0025 561.169 25.5147C561.177 29.5479 560.17 37.5956 559.658 37.5956C559.448 37.5956 559.139 37.0504 558.972 36.3843C558.617 34.9674 554.804 32.0275 551.724 30.7952C546.054 28.5269 536.617 32.0049 529.394 39.0251C527.789 40.5857 525.384 43.3303 524.051 45.1247C517.201 54.34 513.599 63.4678 512.409 74.6261C511.995 78.5066 512.006 80.5335 512.455 82.8148C513.27 86.9559 514.585 89.8421 516.75 92.2378C519.12 94.8615 522.249 96.0466 526.78 96.0366C531.682 96.0255 535.069 94.3897 539.944 89.6784C543.93 85.8265 547.027 81.7818 549.43 77.2899C550.323 75.6194 550.947 74.8881 551.045 75.3941C551.278 76.5957 549.299 83.4749 547.825 86.5925C547.126 88.0697 545.778 90.207 544.83 91.3424C541.761 95.0151 541.607 94.9614 554.622 94.737C560.956 94.6276 566.32 94.356 566.543 94.1327C566.765 93.9098 566.473 93.3416 565.892 92.8713C565.311 92.4005 564.552 91.4834 564.204 90.8334C563.448 89.4214 563.46 81.8978 564.226 77.5002C564.876 73.7652 569.597 52.9345 574.464 32.3251C576.485 23.767 578.403 15.4096 578.726 13.7531C579.05 12.0967 579.427 10.3459 579.564 9.86306C579.715 9.33451 579.551 9.00172 579.153 9.02782C578.79 9.05142 575.104 10.3986 570.963 12.0214ZM490.652 30.1472C483.701 31.4502 478.475 33.8129 473.466 37.9178C472.278 38.8911 469.73 41.5594 467.803 43.8478C462.496 50.1497 463.145 50.7977 470.117 46.1577C475.562 42.5342 480.643 40.3076 485.216 39.5416C489 38.9071 491.394 39.3152 494.271 41.0836C496.323 42.3444 497.938 45.5047 498.294 48.9536C498.572 51.65 498.572 51.65 493.859 51.6576C488.353 51.6661 484.344 52.5159 478.186 54.9799C469.721 58.3671 465.044 61.8014 460.186 68.1997C458.829 69.9861 457.02 72.9129 456.166 74.7039C454.881 77.3968 454.57 78.7586 454.37 82.5799C454.159 86.6115 454.269 87.4894 455.228 89.4711C456.649 92.407 459.674 95.116 462.328 95.8307C463.645 96.1856 465.843 96.2639 468.222 96.0411C471.234 95.759 472.83 95.2681 475.975 93.6553C478.87 92.1711 480.937 90.6015 483.653 87.8252C485.696 85.7351 488.238 82.868 489.301 81.453C491.234 78.8811 491.234 78.8811 491.009 83.9628C490.72 90.4705 491.41 92.4055 494.523 93.8185C496.303 94.6266 497.824 94.7973 503.326 94.8063C510.631 94.8183 511.149 94.5633 508.512 92.2499C505.232 89.3722 505.282 83.7258 508.712 69.7532C509.902 64.9034 511.161 59.242 511.509 57.1714C511.856 55.1009 512.153 50.4705 512.167 46.8815C512.19 41.2392 512.039 39.9677 511.055 37.4861C509.493 33.5474 506.466 30.9091 502.625 30.1376C499.308 29.4716 494.235 29.4756 490.652 30.1472ZM598.821 30.3384C597.303 30.7631 594.366 31.9406 592.296 32.9546C589.328 34.4082 587.332 35.9647 582.87 40.3076C577.856 45.187 576.056 47.6244 576.867 48.4351C577.005 48.5741 578.557 47.6872 580.315 46.4649C584.292 43.6997 588.503 41.5895 592.993 40.1113C595.712 39.2163 597.082 39.0391 599.405 39.2816C601.03 39.4517 603.051 39.9482 603.897 40.3854C605.767 41.3526 607.111 44.2498 607.549 48.2619C607.864 51.1481 607.864 51.1481 606.229 51.1496C603.943 51.1511 595.969 53.3531 591.476 55.2239C586.198 57.4214 582.194 60.2142 577.2 65.1855C573.93 68.4391 572.45 70.3746 571.046 73.2337C570.028 75.3042 568.822 78.74 568.364 80.8693C567.656 84.1625 567.626 85.1599 568.161 87.5517C568.884 90.7802 570.874 93.3632 573.781 94.847C577.517 96.7523 585.011 95.759 590.254 92.663C594.212 90.3254 598.929 85.5268 600.719 82.0177C602.255 79.006 602.255 79.006 601.974 84.5435C601.744 89.0866 601.842 90.3671 602.517 91.6732C603.573 93.7151 605.648 94.3089 611.746 94.3124C616.533 94.3154 617.14 94.0142 615.708 92.3472C615.168 91.7183 615.107 90.3119 615.415 85.5313C615.724 80.7106 616.404 77.1022 618.814 67.4613C620.471 60.8356 622.071 53.7903 622.37 51.8046C623.157 46.5819 623.053 40.1234 622.14 37.5348C621.157 34.7485 618.777 32.2328 615.887 30.9262C614.117 30.1261 612.325 29.8686 607.605 29.7356C603.268 29.6131 600.809 29.7818 598.821 30.3384ZM662.102 30.1492C658.769 31.1064 654.056 35.1591 650.583 40.0551C649.721 41.2698 649.015 42.0202 649.015 41.7225C649.015 41.4249 649.58 39.0758 650.269 36.5023C651.912 30.3691 651.903 29.8822 650.145 30.2094C648.817 30.4569 632.132 37.2452 631.639 37.7391C631.506 37.8716 631.973 38.8283 632.678 39.8653C633.381 40.9029 633.957 42.3525 633.957 43.0873C633.957 45.1714 630.584 64.7257 629.429 69.3426C627.247 78.0589 625.205 83.3238 621.352 90.1703C620.693 91.3414 619.786 92.3011 619.336 92.3036C618.548 92.3076 617.046 93.6618 617.447 94.0072C617.555 94.1 622.788 94.3244 629.076 94.5051C639.26 94.7982 640.541 94.7471 640.814 94.0353C640.983 93.5961 640.708 91.8739 640.204 90.2089C639.387 87.512 639.35 86.6251 639.859 82.0895C640.535 76.0827 643.416 63.3163 645.503 57.0886C646.315 54.6647 647.645 51.3765 648.459 49.7813C651.553 43.7173 654.394 41.1092 657.903 41.1092C659.975 41.1092 660.12 41.2096 661.167 43.3639C662.262 45.6192 662.262 45.6191 661.423 53.7848C660.314 64.5756 656.444 80.6564 653.517 86.6346C652.293 89.1348 650.916 91.1672 650.008 91.8137C649.186 92.3989 648.514 93.2016 648.514 93.5966C648.514 94.1999 650.408 94.3154 660.309 94.3154C673.15 94.3154 673.178 94.3084 671.033 91.5818C670.039 90.3189 669.981 89.8069 670.237 84.6123C670.389 81.5288 670.987 76.2955 671.564 72.9827C674.372 56.8903 679.163 45.8782 685.239 41.5519C686.26 40.8246 687.09 40.6213 688.116 40.8466C691.28 41.5418 691.227 46.994 687.894 63.2992C686.918 68.0732 685.545 74.1246 684.842 76.7473C683.107 83.2234 680.238 89.2131 677.686 91.6902C676.549 92.7935 675.619 93.8355 675.619 94.0057C675.619 94.1758 681.153 94.3154 687.916 94.3154C694.68 94.3154 700.214 94.1181 700.214 93.8767C700.214 93.6352 699.624 92.3814 698.902 91.0904C697.666 88.8793 697.61 88.4888 697.943 84.3763C698.424 78.4283 699.37 73.5027 701.962 63.4457C705.727 48.8386 706.791 40.9867 705.553 36.9455C704.583 33.7773 702.52 31.1441 700.274 30.2054C697.458 29.0289 692.896 29.5845 689.521 31.5155C686.052 33.5007 680.875 38.9704 678.769 42.8765C677.151 45.8777 677.151 45.8776 677.138 42.0769C677.13 39.9622 676.772 37.2417 676.329 35.9432C675.397 33.2055 672.939 30.8469 670.236 30.0965C667.936 29.4575 664.431 29.4806 662.102 30.1492ZM736.354 30.0448C733.351 30.6035 727.897 32.6971 724.958 34.4192C721.752 36.2985 716.141 41.6663 713.519 45.3631C708.524 52.4049 705.123 61.3782 704.158 70.0569C703.67 74.4534 703.665 76.5119 704.137 79.5938C704.894 84.5315 707.056 89.0369 709.952 91.7063C712.887 94.4118 717.4 95.8292 722.98 95.7991C725.228 95.7871 727.912 95.4759 728.943 95.1079C732.597 93.8039 738.099 90.093 742.161 86.1929C746.278 82.2406 746.278 82.2406 747.162 85.8937C747.916 89.0058 748.389 89.8922 750.358 91.8784C751.851 93.3848 753.468 94.4504 754.927 94.8901C760.168 96.4686 767.777 96.2963 772.676 93.8852C777.331 91.5933 781.141 87.9487 783.148 83.8684C784.658 80.7995 784.792 80.1354 784.792 75.7238C784.792 71.1822 784.69 70.7164 782.922 67.1832C781.836 65.0128 779.551 61.7622 777.472 59.4302C773.114 54.5412 771.418 52.1314 769.445 48.024C768.133 45.2944 767.973 44.5169 768.246 42.2029C768.642 38.8334 769.541 36.674 771.192 35.1275C774.04 32.4586 778.099 34.5111 780.618 39.8945C781.989 42.8248 784.017 50.9252 784.032 53.5323C784.04 54.8775 784.821 55.0136 785.473 53.7833C786.548 51.7559 788.86 32.9475 788.235 31.3187C788.078 30.9101 786.047 30.5412 782.378 30.2546C773.929 29.594 770.757 29.8691 767.224 31.5687C765.567 32.3658 763.292 33.8044 762.169 34.7666C757.704 38.5884 755.064 46.9885 756.421 53.052C757.271 56.8497 760.962 63.891 765.29 69.971C770.12 76.7558 771.49 79.5918 771.49 82.8038C771.49 86.1698 770.344 88.5089 768.194 89.5288C766.774 90.2029 766.117 90.2441 764.343 89.7697C761.601 89.0364 758.193 85.583 757.435 82.7696C756.501 79.2982 755.896 72.6298 756.224 69.4053C756.415 67.5195 756.338 66.2079 756.025 66.0147C755.745 65.841 754.267 67.4804 752.742 69.6573C750.89 72.3006 748.62 74.6943 745.911 76.8617C740.452 81.2292 737.369 82.7225 732.788 83.2174C728.268 83.7058 725.502 82.9277 723.054 80.4797C721.335 78.7611 719.288 74.1291 719.288 71.9597C719.288 70.8464 719.493 70.724 721.357 70.724C724.073 70.724 732.909 67.7429 738.047 65.0931C742.751 62.6672 747.726 58.0087 750.259 53.6578C752.785 49.3185 753.756 40.5731 752.141 36.7081C751.089 34.1888 749.622 32.7151 746.675 31.2153C743.931 29.8184 739.978 29.3702 736.354 30.0448ZM412.599 31.7976C412.599 32.2257 412.906 32.5761 413.281 32.5761C414.098 32.5761 416.351 40.5756 417.096 46.1286C417.374 48.1992 417.949 58.8153 418.375 69.7201C418.8 80.6248 419.284 91.0608 419.45 92.911C419.751 96.275 419.751 96.275 422.28 96.4246C424.809 96.5741 424.809 96.5741 422.212 99.4116C416.714 105.418 408.711 110.366 401.556 112.183C397.283 113.268 391.425 112.916 388.258 111.383C387.011 110.779 384.719 109.064 383.165 107.571C381.611 106.078 380.144 104.856 379.905 104.856C379.355 104.856 379.371 110.104 379.935 114.472C380.452 118.479 382.981 123.918 385.194 125.78C386.045 126.496 387.759 127.523 389.004 128.062C390.845 128.859 392.116 129.006 395.835 128.85C399.763 128.686 400.874 128.427 403.756 127.009C405.6 126.101 408.431 124.297 410.048 122.999C414.113 119.736 420.702 112.421 423.9 107.617C427.031 102.917 434.964 88.5114 443.951 71.2099C451.521 56.6354 455.277 50.2105 459.567 44.4933C461.313 42.1673 464.673 38.4353 467.034 36.2007C469.395 33.9655 471.327 31.897 471.327 31.6038C471.327 30.8996 449.43 30.8599 448.996 31.5632C448.828 31.8347 449.266 32.9034 449.97 33.9384C450.673 34.9739 451.248 36.3894 451.248 37.0846C451.247 38.6692 449.064 47.8182 447.653 52.152C446.485 55.7344 444.017 60.8908 439.965 68.2142C438.514 70.8369 436.455 74.5638 435.391 76.4963C433.455 80.0099 433.455 80.0099 433.103 77.7512C432.533 74.0945 432.624 44.9144 433.218 40.9546C433.621 38.2667 434.207 36.6594 435.513 34.6622C436.478 33.187 437.12 31.8317 436.939 31.6505C436.758 31.4693 431.208 31.2535 424.605 31.1702C414.029 31.0376 412.599 31.1124 412.599 31.7976ZM738.891 34.097C740.318 34.8599 741.374 37.2547 741.366 39.7037C741.355 42.9217 740.086 47.7088 738.243 51.4899C736.307 55.4608 732.021 60.0099 727.319 63.0864C724.151 65.1584 719.09 67.1797 718.513 66.603C718.131 66.2205 720.594 56.2885 722.16 51.901C723.919 46.9714 727.236 40.7131 729.32 38.3916C733.092 34.1904 736.341 32.7322 738.891 34.097ZM552.119 35.2234C552.798 35.5667 553.991 36.7553 554.771 37.8646C555.964 39.5622 556.236 40.559 556.49 44.1535C557.009 51.5115 554.816 59.9156 549.569 70.6738C547.451 75.0151 545.769 77.7055 544.009 79.5657C541.297 82.4343 538.114 84.2765 535.871 84.2765C533.98 84.2765 531.698 82.854 530.51 80.935C529.97 80.0637 529.262 77.5233 528.937 75.2907C528.477 72.1394 528.482 70.1417 528.959 66.3661C529.297 63.6907 530.363 59.1446 531.327 56.2629C533.954 48.4125 536.711 43.4467 540.65 39.4738C542.5 37.6081 544.769 35.7534 545.693 35.3524C547.768 34.4514 550.486 34.3966 552.119 35.2234ZM393.262 42.3038C393.921 43.1677 394.726 44.551 395.05 45.3777C396.763 49.7457 396.417 58.5257 394.235 66.0564C392.268 72.8422 389.268 78.5021 385.752 82.0579C381.521 86.3355 378.98 87.9156 376.389 87.8799C375.059 87.8614 373.958 87.5175 373.388 86.9418C372.893 86.4424 372.139 84.6871 371.713 83.0417C369.75 75.4643 371.804 63.9658 377.049 53.1624C379.089 48.9601 380.282 47.2219 382.962 44.5415C387.662 39.8413 390.855 39.1476 393.262 42.3038ZM495.447 62.6933C493.359 68.9245 490.899 73.825 487.758 78.0052C485.54 80.9586 484.543 81.8064 481.368 83.4382C478.428 84.9486 477.234 85.3115 475.91 85.0966C472.521 84.5465 470.825 81.8345 470.825 76.9681C470.825 74.1758 471.087 73.1328 472.418 70.6376C474.761 66.2401 480.356 61.2271 486.067 58.4067C489.114 56.9024 491.662 56.019 493.663 55.7725C496.666 55.4036 496.676 55.4061 496.83 56.7533C496.915 57.4962 496.293 60.1695 495.447 62.6933ZM606.499 57.2969C606.027 61.2031 603.417 71.2159 602.177 73.8737C601.504 75.3163 600.108 77.4671 599.075 78.6532C596.673 81.4119 592.606 83.7635 590.23 83.77C586.393 83.7796 584.199 80.0104 585.234 75.1847C585.525 73.8235 586.35 71.5557 587.064 70.1447C590.037 64.278 597.925 58.0242 605.346 55.651C606.036 55.4307 606.636 55.2304 606.679 55.2068C606.722 55.1832 606.641 56.1239 606.499 57.2969Z" fill="white"/>
<path d="M117.246 35.5355C121.395 29.2125 125.95 25.7094 131.515 24.5625C134.044 24.0415 137.634 24.3883 139.455 25.33C141.153 26.2084 143.871 29.3129 144.72 31.3468C145.087 32.2242 145.546 35.0451 145.74 37.6156C146.073 42.0322 146.137 42.231 146.893 41.2336C147.333 40.6529 148.477 38.7881 149.435 37.0896C151.821 32.8607 156.623 28.0591 160.232 26.2932C163.241 24.8215 167.768 24.1298 170.275 24.7588C172.318 25.2717 175.333 28.3522 176.543 31.1621C178.249 35.13 178.82 42.76 178.108 52.0802C177.784 56.3146 177.146 62.4132 176.689 65.6327C175.638 73.0309 175.517 88.7644 176.477 93.0695C177.412 97.2628 179.102 99.9487 181.936 101.744C185.541 104.029 188.78 104.928 193.455 104.941C199.407 104.957 204.987 103.13 209.655 99.6345C211.53 98.2306 212.693 97.9756 212.698 98.9674C212.702 99.9798 204.562 107.472 201.411 109.356C201.411 109.356 193.851 112.773 189.588 113.435C185.325 114.097 181.745 113.563 176.587 111.498C174.186 110.537 172.523 109.385 170.233 107.095C165.254 102.116 162.994 96.3538 161.939 85.9479C161.521 81.826 161.553 77.201 162.07 66.7174C162.445 59.1255 162.742 50.4293 162.731 47.3925C162.684 34.4954 155.309 32.9238 149.112 44.8828C146.428 50.0623 144.059 56.943 141.506 66.9684C137.274 83.5923 136.53 89.4355 138.407 91.3127C138.959 91.8649 139.862 92.3166 140.415 92.3166C141.774 92.3166 141.689 93.1308 140.289 93.5062C138.957 93.8631 116.823 93.9339 116.823 93.581C116.823 93.4485 117.583 92.15 118.511 90.6948C121.28 86.356 122.852 82.9167 124.866 76.7819C128.281 66.3816 131.219 48.4978 130.369 43.2851C129.876 40.2629 129.242 38.8885 127.46 36.9771C125.219 34.5748 122.06 35.3247 118.685 39.0597C117.681 40.172 116.314 42.1632 115.648 43.4843C114.013 46.7289 112.047 52.2965 110.774 57.2838C108.9 64.6208 106.783 78.5553 106.8 83.4402C106.813 87.2881 107.018 88.4632 108.04 90.5498C108.713 91.9246 109.101 93.198 108.902 93.3792C108.704 93.5604 101.333 93.7908 92.524 93.8912C80.3533 94.0298 76.4577 93.9284 76.3021 93.4696C76.1857 93.1258 77.6519 92.0827 79.7063 91.0482C81.691 90.0483 84.3995 88.2167 85.7247 86.9774C88.6565 84.2343 91.7124 78.5553 93.3984 72.7161C95.0884 66.8625 99.1326 46.7073 99.5407 42.106C99.8348 38.7856 99.7465 38.114 98.8144 36.5846C98.2306 35.6274 97.7523 34.5944 97.7513 34.2892C97.7493 33.6904 115.133 26.0598 116.499 26.0598C116.955 26.0598 117.321 26.4533 117.315 26.9382C117.31 27.4211 116.749 29.9624 116.07 32.5851C115.391 35.2078 114.831 37.7777 114.825 38.2962C114.82 38.8283 115.875 37.6251 117.246 35.5355Z" fill="white"/>
<path fill-rule="evenodd" clip-rule="evenodd" d="M302.292 1.37563C300.636 2.15465 295.61 4.33409 291.124 6.2194C282.409 9.8816 281.427 10.7449 284.65 11.9105C285.849 12.3441 286.589 13.0855 287.222 14.4895C287.949 16.1027 288.046 17.1694 287.757 20.3813C287.37 24.6694 286.065 30.5773 285.503 30.5773C285.309 30.5773 284.641 30.0352 284.019 29.3732C283.396 28.7106 281.493 27.525 279.79 26.7379C277.069 25.4811 276.144 25.3129 272.175 25.3566C267.113 25.4118 265.514 26.0066 260.094 29.8465C256.1 32.676 252.162 36.9801 248.338 42.6973C244.425 48.547 242.165 53.0293 240.329 58.5804C238.423 64.3472 237.588 70.9373 237.909 77.7015C238.116 82.0814 238.415 83.7062 239.411 85.8822C240.095 87.376 241.385 89.4299 242.278 90.4469C243.171 91.4638 245.323 92.9963 247.062 93.8516C249.806 95.2028 250.756 95.4076 254.281 95.4076C257.774 95.4076 258.712 95.2098 260.992 93.9921C264.249 92.2529 269.015 87.6029 271.869 83.3795C273.045 81.6387 274.895 78.3635 275.98 76.1013C277.933 72.0285 277.95 72.0104 277.681 74.2903C277.531 75.5567 277.386 78.7214 277.357 81.3225C277.313 85.458 277.467 86.3696 278.588 88.5806C280.073 91.512 282.474 94.0378 284.975 95.2992C287.476 96.5606 296.221 97.8794 296.221 97.8794L292.892 92.5144C292.892 92.5144 290.747 88.0501 290.792 80.019C290.803 78.0303 290.812 76.5341 290.9 75.0426C291.167 70.5106 292.17 66.022 296.221 47.8944C299.181 34.6431 302.831 18.746 304.332 12.567C305.833 6.38856 307.061 1.02426 307.061 0.645796C307.061 -0.404776 305.604 -0.181907 302.292 1.37563ZM282.638 40.0771C282.728 34.5382 282.211 33.1287 279.64 31.9025C277.53 30.8961 273.756 30.868 271.514 31.8417C270.599 32.2393 268.649 33.7943 267.182 35.2966C262.078 40.5254 257.5 49.4284 255.337 58.3384C254.787 60.6002 254.197 64.949 254.024 68.0019C253.782 72.2975 253.904 74.4208 254.564 77.3863C255.279 80.6002 255.698 81.4671 257.163 82.7526C258.641 84.0506 259.318 84.2855 261.577 84.2855C263.744 84.2855 264.634 84.0034 266.322 82.7807C268.995 80.8442 271.377 77.6036 274.164 72.1108C278.512 63.5401 282.501 48.4621 282.638 40.0771Z" fill="white"/>
<path fill-rule="evenodd" clip-rule="evenodd" d="M331.057 24.5936C326.454 25.2687 319.315 29.2823 313.646 34.3821C309.639 37.987 304.274 45.2161 301.779 50.3725C299.218 55.6671 297.311 61.9389 296.531 67.6395C295.528 74.9614 297.32 83.6776 300.804 88.4276C303.171 91.6546 306.066 93.6438 310.235 94.9102C313.13 95.7896 314.538 95.9226 318.547 95.6972C324.312 95.373 327.157 94.3615 332.88 90.603C337.19 87.772 343.728 81.4229 348.688 75.2505C351.607 71.6179 355.749 64.5108 355.749 63.1345C355.749 62.7666 352.644 65.6437 348.848 69.5283C341.391 77.1584 338.412 79.2354 331.96 81.3029C329.171 82.1964 327.781 82.3575 324.803 82.1321C320.635 81.8169 318.725 80.8818 315.932 77.7908C314.005 75.6576 312.064 70.5477 312.874 69.7381C313.138 69.4741 315.722 68.9229 318.615 68.5129C321.509 68.1033 325.189 67.3132 326.794 66.7571C333.053 64.5882 340.441 60.1058 343.177 56.818C344.044 55.775 345.531 53.3405 346.48 51.4081C349.625 45.0072 350.016 36.7643 347.434 31.3056C345.893 28.0485 343.311 25.9278 339.514 24.7999C336.777 23.9873 335.417 23.9542 331.057 24.5936ZM337.604 35.7403C337.781 31.6209 337.78 31.6164 336.112 30.0934C334.819 28.9124 333.989 28.5741 332.422 28.5891C329.655 28.6162 327.584 29.6156 325.197 32.0751C320.963 36.4375 317.79 42.357 314.834 51.4081C313.175 56.4893 311.163 66.4699 311.693 66.999C312.134 67.4407 316.491 65.0805 319.982 62.5086C326.646 57.598 332.073 51.0818 335.531 43.8342C337.152 40.4395 337.452 39.265 337.604 35.7403Z" fill="white"/>
<path fill-rule="evenodd" clip-rule="evenodd" d="M211.691 25.328C207.173 26.5813 203.145 28.7166 199.004 32.0525C195.203 35.1149 188.012 42.9688 187.686 44.4134C187.438 45.5137 188.861 45.2723 190.445 43.9451C192.872 41.9122 198.832 38.231 201.874 36.8858C203.473 36.1785 206.24 35.3312 208.024 35.0025C210.567 34.5342 211.768 34.5397 213.597 35.0291C217.481 36.0676 219.185 37.4399 220.783 40.818C221.579 42.5015 222.231 44.1615 222.231 44.5063C222.232 44.8516 221.76 45.1337 221.183 45.1337C219.359 45.1337 211.168 48.1605 204.726 51.2148C201.309 52.8351 196.646 55.403 194.363 56.9224C189.424 60.2087 183.88 65.9695 181.728 70.0493C179.822 73.6663 179.063 77.1278 179.069 82.1768C179.073 85.1674 179.34 86.6105 180.246 88.552C181.671 91.6064 184.641 94.3806 187.759 95.5717C189.537 96.2509 191.059 96.407 194.236 96.2363C197.625 96.0546 199.036 95.7043 201.903 94.3349C206.233 92.2664 211.406 87.4588 214.721 82.4228C215.909 80.6173 216.504 79.7124 216.805 79.8016C217.107 79.8912 217.111 80.9843 217.119 83.1757C217.137 87.896 217.665 89.8957 219.379 91.7369C221.505 94.0207 223.149 94.5006 229.635 94.73C235.005 94.9202 235.784 94.8469 235.784 94.1517C235.784 93.714 235.333 93.1142 234.782 92.8196C234.231 92.5244 233.296 91.3338 232.703 90.1733C231.724 88.2534 231.654 87.5456 231.928 82.2847C232.13 78.4037 232.887 73.455 234.231 67.2193C236.692 55.8071 237.415 50.5151 237.486 43.3769C237.552 36.7869 236.48 32.5746 233.999 29.6768C233.106 28.6338 231.053 27.1249 229.437 26.3243C226.769 25.0027 225.944 24.8546 220.475 24.7156C216.204 24.6067 213.648 24.7849 211.691 25.328ZM214.95 74.5583C217.768 68.7292 219.44 63.5486 221.025 55.7333C221.717 52.3146 222.216 49.1111 222.132 48.6142C221.987 47.7474 221.873 47.7489 219.333 48.6484C215.945 49.847 213.772 51.1636 209.525 54.5889C205.602 57.7532 202.228 61.5539 200.766 64.4586C198.507 68.945 196.887 76.6474 197.408 80.4295C197.864 83.7494 199.366 85.2894 202.147 85.2894C204.964 85.2894 206.968 84.3407 210.08 81.5323C212.084 79.7238 213.278 78.0147 214.95 74.5583Z" fill="white"/>
<g clip-path="url(#clip0_363_101)">
<path d="M9.71976 87.7333V77.7848L45.1683 60.4036C46.6167 59.7175 47.9508 59.1457 49.1705 58.6883C50.4665 58.1547 51.4194 57.8117 52.0293 57.6592C51.3432 57.5067 50.3522 57.2018 49.0562 56.7444C47.7602 56.2108 46.4643 55.6009 45.1683 54.9148L9.71976 37.4192V27.1277L58.8903 51.713V63.148L9.71976 87.7333Z" fill="#7CFF00"/>
</g>
<defs>
<clipPath id="clip0_363_101">
<rect width="68.7665" height="85.3307" fill="white" transform="translate(0 11.043)"/>
</clipPath>
</defs>
</svg>
